<?xml version="1.0" encoding="UTF-8" standalone="no"?>
<!-- Created with Inkscape (http://www.inkscape.org/) -->

<svg
   xmlns:osb="http://www.openswatchbook.org/uri/2009/osb"
   xmlns:dc="http://purl.org/dc/elements/1.1/"
   xmlns:cc="http://creativecommons.org/ns#"
   xmlns:rdf="http://www.w3.org/1999/02/22-rdf-syntax-ns#"
   xmlns:svg="http://www.w3.org/2000/svg"
   xmlns="http://www.w3.org/2000/svg"
   xmlns:sodipodi="http://sodipodi.sourceforge.net/DTD/sodipodi-0.dtd"
   xmlns:inkscape="http://www.inkscape.org/namespaces/inkscape"
   width="51.737289mm"
   height="47.114586mm"
   viewBox="0 0 51.737289 47.114585"
   version="1.1"
   id="svg8"
   sodipodi:docname="rlscope_logo_white.svg"
   inkscape:version="0.92.5 (2060ec1f9f, 2020-04-08)">
  <defs
     id="defs2">
    <linearGradient
       id="linearGradient6070"
       osb:paint="solid">
      <stop
         style="stop-color:#000000;stop-opacity:1;"
         offset="0"
         id="stop6068" />
    </linearGradient>
  </defs>
  <sodipodi:namedview
     id="base"
     pagecolor="#ffffff"
     bordercolor="#666666"
     borderopacity="1.0"
     inkscape:pageopacity="0.0"
     inkscape:pageshadow="2"
     inkscape:zoom="1.4142136"
     inkscape:cx="245.99989"
     inkscape:cy="90.595043"
     inkscape:document-units="mm"
     inkscape:current-layer="layer1"
     showgrid="false"
     inkscape:window-width="1848"
     inkscape:window-height="1016"
     inkscape:window-x="72"
     inkscape:window-y="27"
     inkscape:window-maximized="1"
     fit-margin-top="0"
     fit-margin-left="0"
     fit-margin-right="0"
     fit-margin-bottom="0"
     inkscape:pagecheckerboard="true" />
  <metadata
     id="metadata5">
    <rdf:RDF>
      <cc:Work
         rdf:about="">
        <dc:format>image/svg+xml</dc:format>
        <dc:type
           rdf:resource="http://purl.org/dc/dcmitype/StillImage" />
        <dc:title></dc:title>
      </cc:Work>
    </rdf:RDF>
  </metadata>
  <g
     inkscape:groupmode="layer"
     id="layer2"
     inkscape:label="outline"
     transform="translate(2.3207314,2.725086)">
    <rect
       style="display:inline;opacity:0.98999999;fill:#ffffff;fill-opacity:1;stroke:#000000;stroke-width:0.93400002;stroke-linecap:butt;stroke-linejoin:round;stroke-miterlimit:4;stroke-dasharray:none;stroke-dashoffset:0;stroke-opacity:1;paint-order:normal"
       id="rect4608"
       width="50.803288"
       height="46.180588"
       x="-1.8537314"
       y="-2.258086"
       ry="6.253037" />
  </g>
  <g
     inkscape:label="Layer 1"
     inkscape:groupmode="layer"
     id="layer1"
     transform="translate(-14.359464,-16.210317)"
     style="display:inline;opacity:0.98999999">
    <g
       id="g3849"
       transform="matrix(0.46240268,0,0,0.46240268,68.524383,37.452435)" />
    <g
       id="g6185"
       transform="translate(-0.20639167,-0.44648438)">
      <path
         id="path3761"
         d="m 42.566728,37.941559 a 12.161453,12.161453 0 1 0 -0.09119,0.205498 l 17.467249,7.751304 m -10.093099,-6.077706 11.302339,5.01555 -1.185495,2.67146 -11.302339,-5.015546"
         inkscape:connector-curvature="0"
         style="fill:none;stroke:#000000;stroke-width:2.86151838;stroke-linecap:round" />
      <g
         id="g3880"
         data-name="Bot 33"
         transform="matrix(0.28009563,0,0,0.28009563,22.552147,24.405044)">
        <path
           inkscape:connector-curvature="0"
           id="path3874"
           d="m 59,14 a 1,1 0 0 0 -1,1 v 3 H 55.86 A 3.94,3.94 0 0 0 53.46,15.29 3.6,3.6 0 0 0 53,15.2 V 13 h 3 a 1,1 0 0 0 0,-2 h -3 a 2,2 0 0 0 -2,2 v 2.13 A 4,4 0 0 0 48,19 4,4 0 0 0 48.91,21.52 5.44,5.44 0 0 1 41,25.41 V 24 A 2,2 0 0 0 40,22.28 V 19 h 2 a 2,2 0 0 0 2,-2 v -3 a 2,2 0 0 0 -2,-2 h -2 v -2 a 10,10 0 0 0 -20,0 v 2 h -2 a 2,2 0 0 0 -2,2 v 3 a 2,2 0 0 0 2,2 h 2 v 3.28 A 2,2 0 0 0 19,24 v 1.29 A 11.44,11.44 0 0 0 5,35.35 3.93,3.93 0 0 0 4.14,37 H 2 a 2,2 0 0 0 -2,2 v 3 a 1,1 0 0 0 2,0 V 39 H 4.14 A 3.94,3.94 0 0 0 6.54,41.71 3.55,3.55 0 0 0 7,41.85 V 44 H 4 a 1,1 0 0 0 0,2 H 7 A 2,2 0 0 0 9,44 V 41.87 A 4,4 0 0 0 11.09,35.48 5.44,5.44 0 0 1 19,31.64 V 36 a 2,2 0 0 0 2,2 v 6 a 3,3 0 0 0 0.78,2 3,3 0 0 0 -0.78,2 v 3 h -1.25 a 2,2 0 0 0 -1.92,1.45 l -1.43,5 A 2,2 0 0 0 18.33,60 h 23.34 a 2,2 0 0 0 1.92,-2.55 l -1.43,-5 A 2,2 0 0 0 40.25,51 H 39 V 48 A 3,3 0 0 0 38.22,46 3,3 0 0 0 39,44 v -6 a 2,2 0 0 0 2,-2 V 31.76 A 11.44,11.44 0 0 0 55,21.7 3.93,3.93 0 0 0 55.9,20.05 H 58 a 2,2 0 0 0 2,-2 V 15 a 1,1 0 0 0 -1,-1 z m -8.78,4.09 A 2,2 0 0 1 52,17 v 0 a 2,2 0 0 1 0.7,0.15 2,2 0 0 1 0.58,3.36 2,2 0 0 1 -0.92,0.46 1.9,1.9 0 0 1 -0.75,0 2,2 0 0 1 -1,-0.49 L 50.52,20.42 A 2,2 0 0 1 50.17,18.1 Z M 22,13 v -2 h 16 v 7 H 22 Z m 0,7 h 16 v 2 H 22 Z m 20,-6 v 3 H 40 V 14 Z M 30,2 a 8,8 0 0 1 7.94,7 H 22.06 A 8,8 0 0 1 30,2 Z M 18,17 v -3 h 2 v 3 z M 9.78,38.91 A 2,2 0 0 1 8,40 v 0 A 2,2 0 0 1 7.29,39.85 2,2 0 0 1 6.71,36.49 1.94,1.94 0 0 1 7.61,36 2.07,2.07 0 0 1 8,36 a 2.12,2.12 0 0 1 0.4,0 2,2 0 0 1 1,0.49 l 0.08,0.05 a 2,2 0 0 1 0.36,2.33 z M 16.47,29 a 7.49,7.49 0 0 0 -7.15,5.22 v 0 A 3.4,3.4 0 0 0 8.79,34.09 v 0 A 3.73,3.73 0 0 0 8,34 v 0 A 4.08,4.08 0 0 0 7.32,34.06 9.5,9.5 0 0 1 19,27.34 v 2.1 A 7.44,7.44 0 0 0 16.47,29 Z M 31,38 v 6 a 3,3 0 0 0 0.78,2 3,3 0 0 0 -0.78,2 v 3 H 29 V 48 A 3,3 0 0 0 28.22,46 3,3 0 0 0 29,44 v -6 z m -4,0 v 6 a 1,1 0 0 1 -1,1 h -2 a 1,1 0 0 1 -1,-1 v -6 z m -4,10 a 1,1 0 0 1 1,-1 h 2 a 1,1 0 0 1 1,1 v 3 h -4 z m -3.25,5 H 29 v 5 H 18.33 Z m 21.92,5 H 31 v -5 h 9.25 z M 33,51 v -3 a 1,1 0 0 1 1,-1 h 2 a 1,1 0 0 1 1,1 v 3 z m 4,-7 a 1,1 0 0 1 -1,1 h -2 a 1,1 0 0 1 -1,-1 v -6 h 4 z m 1,-8 H 21 V 24 h 18 v 2 0 4.44 0 5.56 z m 5.51,-6 A 9.51,9.51 0 0 1 41,29.71 v -2.1 a 7.49,7.49 0 0 0 9.68,-4.78 v 0 a 3.4,3.4 0 0 0 0.53,0.13 h 0.17 A 3.9,3.9 0 0 0 52,23 v 0 a 3.83,3.83 0 0 0 0.46,0 h 0.22 a 9.53,9.53 0 0 1 -9.15,7 z" />
        <path
           inkscape:connector-curvature="0"
           id="path3876"
           d="m 25.55,14.17 a 0.56,0.56 0 0 0 -0.17,-0.09 0.61,0.61 0 0 0 -0.19,-0.06 0.85,0.85 0 0 0 -0.39,0 0.63,0.63 0 0 0 -0.18,0.06 0.76,0.76 0 0 0 -0.18,0.09 l -0.15,0.12 A 1,1 0 0 0 24,15 a 1.53,1.53 0 0 0 0,0.2 0.65,0.65 0 0 0 0.06,0.18 0.54,0.54 0 0 0 0.09,0.17 l 0.12,0.16 A 1,1 0 0 0 25,16 1.05,1.05 0 0 0 25.71,15.71 l 0.12,-0.16 A 0.56,0.56 0 0 0 25.92,15.38 0.62,0.62 0 0 0 26,15.2 1.39,1.39 0 0 0 26,15 1.05,1.05 0 0 0 25.71,14.29 Z" />
        <path
           inkscape:connector-curvature="0"
           id="path3878"
           d="M 35.56,14.17 A 0.76,0.76 0 0 0 35.38,14.08 L 35.2,14 a 0.89,0.89 0 0 0 -0.4,0 0.63,0.63 0 0 0 -0.18,0.06 0.76,0.76 0 0 0 -0.18,0.09 l -0.15,0.12 a 1,1 0 0 0 0,1.42 l 0.15,0.12 a 0.76,0.76 0 0 0 0.18,0.09 l 0.18,0.06 h 0.2 0.2 l 0.18,-0.06 a 0.76,0.76 0 0 0 0.18,-0.09 l 0.15,-0.12 a 1,1 0 0 0 0,-1.42 z" />
      </g>
    </g>
    <flowRoot
       xml:space="preserve"
       id="flowRoot3836"
       style="font-style:normal;font-weight:normal;font-size:40px;line-height:1.25;font-family:sans-serif;letter-spacing:0px;word-spacing:0px;fill:#000000;fill-opacity:1;stroke:none"
       transform="scale(0.26458333)"><flowRegion
         id="flowRegion3838"><rect
           id="rect3840"
           width="757.61438"
           height="276.7818"
           x="496.99506"
           y="59.839207" /></flowRegion><flowPara
         id="flowPara3842" /></flowRoot>    <text
       xml:space="preserve"
       style="font-style:normal;font-weight:normal;font-size:6.87596512px;line-height:1.25;font-family:sans-serif;letter-spacing:0px;word-spacing:0px;display:inline;fill:#000000;fill-opacity:1;stroke:none;stroke-width:0.17189912"
       x="16.860855"
       y="57.70005"
       id="text3834-1"><tspan
         sodipodi:role="line"
         id="tspan3832-5"
         x="16.860855"
         y="57.70005"
         style="font-style:normal;font-variant:normal;font-weight:normal;font-stretch:normal;font-size:11.001544px;font-family:Laksaman;-inkscape-font-specification:'Laksaman, Normal';font-variant-ligatures:normal;font-variant-caps:normal;font-variant-numeric:normal;font-feature-settings:normal;text-align:start;writing-mode:lr-tb;text-anchor:start;fill:#000000;stroke-width:0.17189912">RL-Scope</tspan></text>
    <flowRoot
       xml:space="preserve"
       id="flowRoot4592"
       style="font-style:normal;font-weight:normal;font-size:40px;line-height:1.25;font-family:sans-serif;letter-spacing:0px;word-spacing:0px;fill:#000000;fill-opacity:1;stroke:none"
       transform="matrix(0.26458333,0,0,0.26458333,16.680195,18.935403)"><flowRegion
         id="flowRegion4594"><rect
           id="rect4596"
           width="253.85133"
           height="204.35387"
           x="-205.76807"
           y="-213.8566" /></flowRegion><flowPara
         id="flowPara4598"></flowPara></flowRoot>    <flowRoot
       xml:space="preserve"
       id="flowRoot4600"
       style="font-style:normal;font-weight:normal;font-size:40px;line-height:1.25;font-family:sans-serif;letter-spacing:0px;word-spacing:0px;fill:#000000;fill-opacity:1;stroke:none"
       transform="matrix(0.26458333,0,0,0.26458333,16.680195,18.935403)"><flowRegion
         id="flowRegion4602"><rect
           id="rect4604"
           width="37.476658"
           height="53.033009"
           x="-16.970562"
           y="-87.991585" /></flowRegion><flowPara
         id="flowPara4606"></flowPara></flowRoot>  </g>
</svg>
